<svg width="380" height="319" viewBox="0 0 380 319" fill="none" xmlns="http://www.w3.org/2000/svg">
<path d="M234 1H364C372.284 1 379 7.71573 379 16V56.2727H234C225.716 56.2727 219 49.557 219 41.2727V16C219 7.71573 225.716 1 234 1Z" fill="#50CD8C" stroke="#50CD8C"/>
<circle cx="269.909" cy="28.6364" r="14.5455" fill="white"/>
<circle cx="339.727" cy="28.6364" r="8.72727" fill="white"/>
<circle cx="307.727" cy="28.6364" r="11.6364" fill="white"/>
<path d="M284 146.273H364C372.284 146.273 379 152.988 379 161.273V184.273H284C275.716 184.273 269 177.557 269 169.273V161.273C269 152.988 275.716 146.273 284 146.273Z" fill="#50CD8C" stroke="#50CD8C"/>
<circle cx="304" cy="165.273" r="10" fill="white"/>
<circle cx="352" cy="165.273" r="6" fill="white"/>
<circle cx="330" cy="165.273" r="8" fill="white"/>
<path d="M267 274.273H364.368C372.653 274.273 379.368 280.988 379.368 289.273V318.273H267C258.716 318.273 252 311.557 252 303.273V289.273C252 280.988 258.716 274.273 267 274.273Z" fill="#50CD8C" stroke="#50CD8C"/>
<circle cx="292.526" cy="296.273" r="11.5789" fill="white"/>
<circle cx="348.105" cy="296.273" r="6.94737" fill="white"/>
<circle cx="322.632" cy="296.273" r="9.26316" fill="white"/>
<path d="M95 95H15C6.71574 95 0 101.716 0 110V133H95C103.284 133 110 126.284 110 118V110C110 101.716 103.284 95 95 95Z" fill="white"/>
<circle cx="10" cy="10" r="10" transform="matrix(-1 0 0 1 85 104)" fill="#50CD8C"/>
<circle cx="6" cy="6" r="6" transform="matrix(-1 0 0 1 33 108)" fill="#50CD8C"/>
<circle cx="8" cy="8" r="8" transform="matrix(-1 0 0 1 57 106)" fill="#50CD8C"/>
<path d="M124 215.991H15C6.71573 215.991 0 222.707 0 230.991V264.009H124C132.284 264.009 139 257.293 139 249.009V230.991C139 222.707 132.284 215.991 124 215.991Z" fill="white"/>
<circle cx="12.6364" cy="12.6364" r="12.6364" transform="matrix(-1 0 0 1 107.409 227.364)" fill="#50CD8C"/>
<circle cx="7.58182" cy="7.58182" r="7.58182" transform="matrix(-1 0 0 1 41.7 232.418)" fill="#50CD8C"/>
<circle cx="10.1091" cy="10.1091" r="10.1091" transform="matrix(-1 0 0 1 72.0272 229.891)" fill="#50CD8C"/>
</svg>
