<svg width="26" height="20" viewBox="0 0 26 20" fill="none" xmlns="http://www.w3.org/2000/svg">
<path d="M23.475 5.71253L21.9375 8.02503C22.6789 9.50387 23.0419 11.1436 22.9939 12.7972C22.946 14.4508 22.4885 16.0667 21.6625 17.5H4.33747C3.26393 15.6377 2.81909 13.4789 3.0689 11.3439C3.3187 9.2088 4.24986 7.21106 5.72432 5.64681C7.19878 4.08257 9.13805 3.03508 11.2546 2.65965C13.3712 2.28422 15.5525 2.60082 17.475 3.56253L19.7875 2.02503C17.4331 0.5153 14.6404 -0.161214 11.8561 0.1037C9.07179 0.368614 6.45678 1.55965 4.42934 3.48629C2.4019 5.41294 1.07917 7.96387 0.672743 10.731C0.266313 13.4982 0.799659 16.3218 2.18747 18.75C2.40561 19.1279 2.71883 19.4421 3.09601 19.6613C3.47319 19.8806 3.90119 19.9974 4.33747 20H21.65C22.0905 20.0018 22.5237 19.8871 22.9056 19.6676C23.2875 19.4481 23.6047 19.1315 23.825 18.75C24.9767 16.7549 25.5547 14.4804 25.4951 12.1775C25.4356 9.87458 24.7408 7.63293 23.4875 5.70003L23.475 5.71253ZM11.2375 14.2625C11.4697 14.495 11.7454 14.6794 12.0489 14.8052C12.3524 14.931 12.6777 14.9957 13.0062 14.9957C13.3348 14.9957 13.6601 14.931 13.9636 14.8052C14.2671 14.6794 14.5428 14.495 14.775 14.2625L21.85 3.65003L11.2375 10.725C11.005 10.9572 10.8206 11.2329 10.6948 11.5364C10.569 11.8399 10.5043 12.1652 10.5043 12.4938C10.5043 12.8223 10.569 13.1476 10.6948 13.4511C10.8206 13.7546 11.005 14.0303 11.2375 14.2625Z" fill="white"/>
</svg>
