<svg width="419" height="23" viewBox="0 0 419 23" fill="none" xmlns="http://www.w3.org/2000/svg">
<path d="M8.04626 15.397C17.6325 15.397 26.9197 12.755 36.447 12.755C44.1915 12.755 51.8597 12.0945 59.5639 12.0945C81.2284 12.0945 102.931 10.7736 124.585 10.7736C132.396 10.7736 140.29 9.45262 148.215 9.45262C162.917 9.45262 177.619 9.45262 192.321 9.45262C202.025 9.45262 211.66 10.1131 221.382 10.1131C231.015 10.1131 240.516 11.4341 250.15 11.4341C284.965 11.4341 319.719 12.0945 354.506 12.0945C360.988 12.0945 367.425 10.7736 373.953 10.7736C377.337 10.7736 380.526 10.7632 383.861 10.2599C387.119 9.7681 390.577 10.6692 393.768 9.78286C395.548 9.28839 399.04 8.79214 400.703 8.79214C404.176 8.79214 407.434 8.13165 410.94 8.13165" stroke="#50CD8C" stroke-width="15" stroke-linecap="round"/>
</svg>
